<svg width="24" height="24" viewBox="0 0 24 24" fill="none" xmlns="http://www.w3.org/2000/svg">
<g clip-path="url(#clip0_1001_970)">
<path d="M12 0C9.62659 0 7.30655 0.703788 5.33316 2.02237C3.35977 3.34094 1.8217 5.21509 0.913451 7.4078C0.00519963 9.60055 -0.232441 12.0133 0.230582 14.3411C0.693605 16.6688 1.83649 18.807 3.51473 20.4853C5.19295 22.1635 7.33115 23.3064 9.65889 23.7694C11.9867 24.2324 14.3995 23.9948 16.5922 23.0865C18.7849 22.1783 20.6591 20.6403 21.9776 18.6668C23.2962 16.6935 24 14.3734 24 12C23.9939 8.81928 22.7276 5.77057 20.4786 3.52146C18.2295 1.27234 15.1807 0.0060992 12 0ZM17.4692 12.3577C17.4189 12.4696 17.3485 12.5712 17.2615 12.6577L13.35 16.5692C13.2663 16.6554 13.1657 16.7234 13.0545 16.7691C12.9434 16.8147 12.824 16.837 12.7038 16.8346C12.582 16.8372 12.4608 16.815 12.3477 16.7694C12.2347 16.7238 12.1321 16.6557 12.0462 16.5692C11.8735 16.3962 11.7766 16.1617 11.7766 15.9173C11.7766 15.6729 11.8735 15.4385 12.0462 15.2654L14.3885 12.9231H7.38462C7.13981 12.9231 6.90502 12.8258 6.73191 12.6527C6.55879 12.4796 6.46155 12.2448 6.46155 12C6.46155 11.7552 6.55879 11.5204 6.73191 11.3473C6.90502 11.1742 7.13981 11.0769 7.38462 11.0769H14.3885L12.0462 8.73462C11.887 8.55902 11.8015 8.32897 11.8074 8.09209C11.8133 7.85522 11.9099 7.62965 12.0774 7.4621C12.2451 7.29455 12.4706 7.19785 12.7074 7.19202C12.9444 7.18618 13.1744 7.27167 13.35 7.43077L17.2615 11.3423C17.3485 11.4288 17.4189 11.5304 17.4692 11.6423C17.5616 11.8718 17.5616 12.1282 17.4692 12.3577Z" fill="#7DB6EE"/>
</g>
<defs>
<clipPath id="clip0_1001_970">
<rect width="24" height="24" fill="white"/>
</clipPath>
</defs>
</svg>
