<svg width="24" height="24" viewBox="0 0 24 24" fill="none" xmlns="http://www.w3.org/2000/svg">
<g clip-path="url(#clip0_120_2412)">
<path d="M23.375 12C23.375 9.75024 22.7079 7.551 21.458 5.68039C20.2081 3.80978 18.4315 2.35182 16.353 1.49088C14.2745 0.629928 11.9874 0.404665 9.78086 0.843572C7.57432 1.28248 5.54748 2.36584 3.95666 3.95666C2.36584 5.54749 1.28248 7.57432 0.843573 9.78085C0.404666 11.9874 0.629929 14.2745 1.49087 16.353C2.35182 18.4315 3.80978 20.2081 5.68039 21.458C7.551 22.7079 9.75025 23.375 12 23.375C15.0151 23.3692 17.905 22.1689 20.037 20.037C22.1689 17.905 23.3692 15.0151 23.375 12ZM11.6609 17.1844C11.5549 17.1367 11.4585 17.07 11.3766 16.9875L7.66875 13.2797C7.58709 13.2003 7.52262 13.1049 7.47935 12.9996C7.43607 12.8942 7.41492 12.7811 7.41719 12.6672C7.41471 12.5517 7.43573 12.4368 7.47897 12.3296C7.52221 12.2225 7.58678 12.1252 7.66875 12.0438C7.83278 11.8801 8.05503 11.7882 8.28673 11.7882C8.51842 11.7882 8.74065 11.8801 8.90469 12.0438L11.125 14.2641V7.625C11.125 7.39294 11.2172 7.17038 11.3813 7.00629C11.5454 6.84219 11.7679 6.75 12 6.75C12.2321 6.75 12.4546 6.84219 12.6187 7.00629C12.7828 7.17038 12.875 7.39294 12.875 7.625V14.2641L15.0953 12.0438C15.2618 11.8929 15.4798 11.8119 15.7044 11.8174C15.9289 11.823 16.1427 11.9146 16.3016 12.0735C16.4604 12.2323 16.552 12.4461 16.5576 12.6706C16.5631 12.8952 16.4821 13.1132 16.3312 13.2797L12.6234 16.9875C12.5415 17.07 12.4451 17.1367 12.3391 17.1844C12.1215 17.272 11.8785 17.272 11.6609 17.1844Z" fill="#191919"/>
</g>
<defs>
<clipPath id="clip0_120_2412">
<rect width="24" height="24" fill="white"/>
</clipPath>
</defs>
</svg>
