<svg width="34" height="34" viewBox="0 0 34 34" fill="none" xmlns="http://www.w3.org/2000/svg">
<path d="M21.25 11.3333H24.0833M21.25 17H24.0833M24.0833 22.6667H9.91667M9.91667 11.3333V17H15.5833V11.3333H9.91667ZM7.08333 28.3333H26.9167C27.6681 28.3333 28.3888 28.0348 28.9201 27.5035C29.4515 26.9721 29.75 26.2514 29.75 25.5V8.49999C29.75 7.74854 29.4515 7.02787 28.9201 6.49652C28.3888 5.96517 27.6681 5.66666 26.9167 5.66666H7.08333C6.33189 5.66666 5.61122 5.96517 5.07986 6.49652C4.54851 7.02787 4.25 7.74854 4.25 8.49999V25.5C4.25 26.2514 4.54851 26.9721 5.07986 27.5035C5.61122 28.0348 6.33189 28.3333 7.08333 28.3333Z" stroke="#1A1A1A" stroke-width="2.83333" stroke-linecap="round" stroke-linejoin="round"/>
</svg>
