<svg width="20" height="21" viewBox="0 0 20 21" fill="none" xmlns="http://www.w3.org/2000/svg">
<path d="M10 0.665039C12.717 0.665039 13.056 0.675039 14.122 0.725039C15.187 0.775039 15.912 0.942039 16.55 1.19004C17.21 1.44404 17.766 1.78804 18.322 2.34304C18.8305 2.84294 19.224 3.44763 19.475 4.11504C19.722 4.75204 19.89 5.47804 19.94 6.54304C19.987 7.60904 20 7.94804 20 10.6651C20 13.3821 19.99 13.7211 19.94 14.7871C19.89 15.8521 19.722 16.5771 19.475 17.2151C19.2247 17.8829 18.8311 18.4877 18.322 18.9871C17.822 19.4954 17.2173 19.8888 16.55 20.1401C15.913 20.3871 15.187 20.5551 14.122 20.6051C13.056 20.6521 12.717 20.6651 10 20.6651C7.283 20.6651 6.944 20.6551 5.878 20.6051C4.813 20.5551 4.088 20.3871 3.45 20.1401C2.78233 19.8896 2.17753 19.496 1.678 18.9871C1.16941 18.4873 0.77593 17.8825 0.525 17.2151C0.277 16.5781 0.11 15.8521 0.0599999 14.7871C0.0129999 13.7211 0 13.3821 0 10.6651C0 7.94804 0.00999994 7.60904 0.0599999 6.54304C0.11 5.47704 0.277 4.75304 0.525 4.11504C0.77524 3.44722 1.1688 2.84236 1.678 2.34304C2.17767 1.83427 2.78243 1.44077 3.45 1.19004C4.088 0.942039 4.812 0.775039 5.878 0.725039C6.944 0.678039 7.283 0.665039 10 0.665039ZM10 5.66504C8.6739 5.66504 7.40215 6.19183 6.46447 7.12951C5.52678 8.06716 5 9.33896 5 10.6651C5 11.9912 5.52678 13.2629 6.46447 14.2006C7.40215 15.1383 8.6739 15.6651 10 15.6651C11.3261 15.6651 12.5979 15.1383 13.5355 14.2006C14.4732 13.2629 15 11.9912 15 10.6651C15 9.33896 14.4732 8.06716 13.5355 7.12951C12.5979 6.19183 11.3261 5.66504 10 5.66504ZM16.5 5.41504C16.5 5.08352 16.3683 4.76558 16.1339 4.53116C15.8995 4.29674 15.5815 4.16504 15.25 4.16504C14.9185 4.16504 14.6005 4.29674 14.3661 4.53116C14.1317 4.76558 14 5.08352 14 5.41504C14 5.74656 14.1317 6.0645 14.3661 6.29892C14.6005 6.53335 14.9185 6.66504 15.25 6.66504C15.5815 6.66504 15.8995 6.53335 16.1339 6.29892C16.3683 6.0645 16.5 5.74656 16.5 5.41504ZM10 7.66504C10.7956 7.66504 11.5587 7.98111 12.1213 8.54376C12.6839 9.10636 13 9.86936 13 10.6651C13 11.4607 12.6839 12.2238 12.1213 12.7864C11.5587 13.349 10.7956 13.6651 10 13.6651C9.2044 13.6651 8.4413 13.349 7.87868 12.7864C7.31607 12.2238 7 11.4607 7 10.6651C7 9.86936 7.31607 9.10636 7.87868 8.54376C8.4413 7.98111 9.2044 7.66504 10 7.66504Z" fill="#F9F9F9"/>
</svg>
