<svg width="21" height="19" viewBox="0 0 21 19" fill="none" xmlns="http://www.w3.org/2000/svg">
<path d="M4.94141 2.66506C4.94114 3.1955 4.73017 3.7041 4.35491 4.07899C3.97965 4.45387 3.47084 4.66433 2.94041 4.66407C2.40997 4.6638 1.90137 4.45283 1.52649 4.07757C1.1516 3.70231 0.941137 3.1935 0.941407 2.66306C0.941667 2.13263 1.15264 1.62403 1.5279 1.24914C1.90316 0.874263 2.41197 0.663803 2.94241 0.664063C3.47284 0.664333 3.98144 0.875303 4.35633 1.25056C4.73121 1.62582 4.94167 2.13463 4.94141 2.66506ZM5.00141 6.14506H1.00141V18.6651H5.00141V6.14506ZM11.3214 6.14506H7.34141V18.6651H11.2814V12.0951C11.2814 8.43506 16.0514 8.09506 16.0514 12.0951V18.6651H20.0014V10.7351C20.0014 4.56506 12.9414 4.79507 11.2814 7.82506L11.3214 6.14506Z" fill="#F9F9F9"/>
</svg>
