<svg width="253" height="48" viewBox="0 0 253 48" fill="none" xmlns="http://www.w3.org/2000/svg">
<g clip-path="url(#clip0_982_5460)">
<rect width="49.7143" height="48" fill="#0D0D0D"/>
<path fill-rule="evenodd" clip-rule="evenodd" d="M15 29.5714C16.4202 29.5714 17.5714 28.4201 17.5714 27C17.5714 25.5798 16.4202 24.4285 15 24.4285C13.5798 24.4285 12.4286 25.5798 12.4286 27C12.4286 28.4201 13.5798 29.5714 15 29.5714ZM25.2855 29.5714C26.7056 29.5714 27.8569 28.4201 27.8569 27C27.8569 25.5798 26.7056 24.4285 25.2855 24.4285C23.8653 24.4285 22.714 25.5798 22.714 27C22.714 28.4201 23.8653 29.5714 25.2855 29.5714ZM38.1427 27C38.1427 28.4201 36.9914 29.5714 35.5713 29.5714C34.1511 29.5714 32.9999 28.4201 32.9999 27C32.9999 25.5798 34.1511 24.4285 35.5713 24.4285C36.9914 24.4285 38.1427 25.5798 38.1427 27ZM6.85718 30.8571H42.8572V35.9999H6.85718V30.8571ZM22.2858 48L22.2858 36H27.4287L27.4287 48H22.2858ZM12 36L12 48H17.1429V36H12ZM32.5714 48V36H37.7142V48H32.5714Z" fill="white"/>
<path d="M69.6777 16.0938V36H65.5898V16.0938H69.6777ZM75.8027 16.0938V19.3066H59.5605V16.0938H75.8027ZM81.1763 15V36H77.2388V15H81.1763ZM80.6158 28.084H79.5357C79.5448 27.054 79.6815 26.1061 79.9459 25.2402C80.2102 24.3652 80.5884 23.6087 81.0806 22.9707C81.5728 22.3236 82.1607 21.8223 82.8443 21.4668C83.537 21.1113 84.3026 20.9336 85.1412 20.9336C85.8703 20.9336 86.5311 21.0384 87.1236 21.248C87.7252 21.4486 88.2401 21.7767 88.6685 22.2324C89.106 22.679 89.4433 23.2669 89.6802 23.9961C89.9172 24.7253 90.0357 25.6094 90.0357 26.6484V36H86.0709V26.6211C86.0709 25.9648 85.9752 25.4499 85.7838 25.0762C85.6015 24.6934 85.3326 24.4245 84.9771 24.2695C84.6308 24.1055 84.2024 24.0234 83.692 24.0234C83.1268 24.0234 82.6438 24.1283 82.2427 24.3379C81.8508 24.5475 81.5364 24.8392 81.2994 25.2129C81.0624 25.5775 80.8892 26.0059 80.7798 26.498C80.6705 26.9902 80.6158 27.5189 80.6158 28.084ZM96.6261 21.207V36H92.6749V21.207H96.6261ZM92.4288 17.3516C92.4288 16.7773 92.6293 16.3034 93.0304 15.9297C93.4314 15.556 93.9692 15.3691 94.6437 15.3691C95.309 15.3691 95.8422 15.556 96.2433 15.9297C96.6534 16.3034 96.8585 16.7773 96.8585 17.3516C96.8585 17.9258 96.6534 18.3997 96.2433 18.7734C95.8422 19.1471 95.309 19.334 94.6437 19.334C93.9692 19.334 93.4314 19.1471 93.0304 18.7734C92.6293 18.3997 92.4288 17.9258 92.4288 17.3516ZM107.318 31.9121C107.318 31.6296 107.236 31.3743 107.072 31.1465C106.908 30.9186 106.603 30.709 106.156 30.5176C105.718 30.3171 105.085 30.1348 104.256 29.9707C103.508 29.8066 102.811 29.6016 102.164 29.3555C101.526 29.1003 100.97 28.7949 100.496 28.4395C100.031 28.084 99.6664 27.6647 99.402 27.1816C99.1377 26.6895 99.0055 26.1289 99.0055 25.5C99.0055 24.8802 99.1377 24.2969 99.402 23.75C99.6755 23.2031 100.063 22.7201 100.564 22.3008C101.075 21.8724 101.694 21.5397 102.424 21.3027C103.162 21.0566 103.991 20.9336 104.912 20.9336C106.197 20.9336 107.3 21.1387 108.22 21.5488C109.15 21.959 109.861 22.5241 110.353 23.2441C110.855 23.9551 111.105 24.7663 111.105 25.6777H107.168C107.168 25.2949 107.086 24.9531 106.922 24.6523C106.767 24.3424 106.521 24.1009 106.183 23.9277C105.855 23.7454 105.427 23.6543 104.898 23.6543C104.461 23.6543 104.082 23.7318 103.763 23.8867C103.444 24.0326 103.198 24.2331 103.025 24.4883C102.861 24.7344 102.779 25.0078 102.779 25.3086C102.779 25.5365 102.825 25.7415 102.916 25.9238C103.016 26.097 103.175 26.2565 103.394 26.4023C103.613 26.5482 103.896 26.6849 104.242 26.8125C104.597 26.931 105.035 27.0404 105.554 27.1406C106.621 27.3594 107.573 27.6465 108.412 28.002C109.25 28.3483 109.916 28.8223 110.408 29.4238C110.9 30.0163 111.146 30.7956 111.146 31.7617C111.146 32.418 111 33.0195 110.709 33.5664C110.417 34.1133 109.998 34.5918 109.451 35.002C108.904 35.403 108.248 35.7174 107.482 35.9453C106.726 36.1641 105.873 36.2734 104.925 36.2734C103.549 36.2734 102.382 36.0273 101.425 35.5352C100.478 35.043 99.7575 34.4186 99.2653 33.6621C98.7822 32.8965 98.5407 32.1126 98.5407 31.3105H102.273C102.291 31.8483 102.428 32.2812 102.683 32.6094C102.948 32.9375 103.28 33.1745 103.681 33.3203C104.091 33.4661 104.534 33.5391 105.007 33.5391C105.518 33.5391 105.942 33.4707 106.279 33.334C106.616 33.1882 106.871 32.9967 107.045 32.7598C107.227 32.5137 107.318 32.2311 107.318 31.9121ZM127.964 16.0938V36H123.876V16.0938H127.964ZM134.089 16.0938V19.3066H117.846V16.0938H134.089ZM141.144 36.2734C139.995 36.2734 138.966 36.0911 138.054 35.7266C137.143 35.3529 136.368 34.8379 135.73 34.1816C135.101 33.5254 134.618 32.7643 134.281 31.8984C133.943 31.0234 133.775 30.0938 133.775 29.1094V28.5625C133.775 27.4414 133.934 26.416 134.253 25.4863C134.572 24.5566 135.028 23.75 135.62 23.0664C136.222 22.3828 136.951 21.8587 137.808 21.4941C138.665 21.1204 139.631 20.9336 140.706 20.9336C141.755 20.9336 142.684 21.1068 143.495 21.4531C144.307 21.7995 144.986 22.2917 145.533 22.9297C146.089 23.5677 146.508 24.3333 146.79 25.2266C147.073 26.1107 147.214 27.0951 147.214 28.1797V29.8203H135.456V27.1953H143.345V26.8945C143.345 26.3477 143.245 25.86 143.044 25.4316C142.853 24.9941 142.561 24.6478 142.169 24.3926C141.777 24.1374 141.276 24.0098 140.665 24.0098C140.146 24.0098 139.699 24.1237 139.326 24.3516C138.952 24.5794 138.647 24.8984 138.41 25.3086C138.182 25.7188 138.008 26.2018 137.89 26.7578C137.781 27.3047 137.726 27.9062 137.726 28.5625V29.1094C137.726 29.7018 137.808 30.2487 137.972 30.75C138.145 31.2513 138.387 31.6842 138.697 32.0488C139.016 32.4134 139.398 32.696 139.845 32.8965C140.301 33.097 140.816 33.1973 141.39 33.1973C142.101 33.1973 142.762 33.0605 143.372 32.7871C143.992 32.5046 144.525 32.0807 144.972 31.5156L146.886 33.5938C146.576 34.0404 146.152 34.4688 145.615 34.8789C145.086 35.2891 144.448 35.6263 143.701 35.8906C142.953 36.1458 142.101 36.2734 141.144 36.2734ZM155.008 33.1973C155.491 33.1973 155.919 33.1061 156.293 32.9238C156.667 32.7324 156.958 32.4681 157.168 32.1309C157.387 31.7845 157.501 31.3789 157.51 30.9141H161.215C161.206 31.9531 160.928 32.8783 160.381 33.6895C159.834 34.4915 159.1 35.125 158.18 35.5898C157.259 36.0456 156.229 36.2734 155.09 36.2734C153.941 36.2734 152.939 36.082 152.082 35.6992C151.234 35.3164 150.528 34.7878 149.963 34.1133C149.398 33.4297 148.974 32.6367 148.691 31.7344C148.409 30.8229 148.268 29.8477 148.268 28.8086V28.4121C148.268 27.3639 148.409 26.3887 148.691 25.4863C148.974 24.5749 149.398 23.7819 149.963 23.1074C150.528 22.4238 151.234 21.8906 152.082 21.5078C152.93 21.125 153.923 20.9336 155.062 20.9336C156.275 20.9336 157.337 21.166 158.248 21.6309C159.169 22.0957 159.889 22.7611 160.408 23.627C160.937 24.4837 161.206 25.5 161.215 26.6758H157.51C157.501 26.1836 157.396 25.737 157.195 25.3359C157.004 24.9349 156.721 24.6159 156.348 24.3789C155.983 24.1328 155.532 24.0098 154.994 24.0098C154.42 24.0098 153.95 24.1328 153.586 24.3789C153.221 24.6159 152.939 24.944 152.738 25.3633C152.538 25.7734 152.396 26.2428 152.314 26.7715C152.241 27.291 152.205 27.8379 152.205 28.4121V28.8086C152.205 29.3828 152.241 29.9342 152.314 30.4629C152.387 30.9915 152.524 31.4609 152.725 31.8711C152.934 32.2812 153.221 32.6048 153.586 32.8418C153.95 33.0788 154.424 33.1973 155.008 33.1973ZM166.78 15V36H162.842V15H166.78ZM166.219 28.084H165.139C165.148 27.054 165.285 26.1061 165.549 25.2402C165.814 24.3652 166.192 23.6087 166.684 22.9707C167.176 22.3236 167.764 21.8223 168.448 21.4668C169.14 21.1113 169.906 20.9336 170.745 20.9336C171.474 20.9336 172.135 21.0384 172.727 21.248C173.329 21.4486 173.844 21.7767 174.272 22.2324C174.709 22.679 175.047 23.2669 175.284 23.9961C175.521 24.7253 175.639 25.6094 175.639 26.6484V36H171.674V26.6211C171.674 25.9648 171.579 25.4499 171.387 25.0762C171.205 24.6934 170.936 24.4245 170.581 24.2695C170.234 24.1055 169.806 24.0234 169.295 24.0234C168.73 24.0234 168.247 24.1283 167.846 24.3379C167.454 24.5475 167.14 24.8392 166.903 25.2129C166.666 25.5775 166.493 26.0059 166.383 26.498C166.274 26.9902 166.219 27.5189 166.219 28.084ZM192.894 16.0938V36H188.806V16.0938H192.894ZM199.019 16.0938V19.3066H182.777V16.0938H199.019ZM204.393 15V36H200.455V15H204.393ZM203.832 28.084H202.752C202.761 27.054 202.898 26.1061 203.162 25.2402C203.427 24.3652 203.805 23.6087 204.297 22.9707C204.789 22.3236 205.377 21.8223 206.061 21.4668C206.753 21.1113 207.519 20.9336 208.358 20.9336C209.087 20.9336 209.748 21.0384 210.34 21.248C210.942 21.4486 211.457 21.7767 211.885 22.2324C212.322 22.679 212.66 23.2669 212.897 23.9961C213.134 24.7253 213.252 25.6094 213.252 26.6484V36H209.287V26.6211C209.287 25.9648 209.192 25.4499 209 25.0762C208.818 24.6934 208.549 24.4245 208.194 24.2695C207.847 24.1055 207.419 24.0234 206.908 24.0234C206.343 24.0234 205.86 24.1283 205.459 24.3379C205.067 24.5475 204.753 24.8392 204.516 25.2129C204.279 25.5775 204.106 26.0059 203.996 26.498C203.887 26.9902 203.832 27.5189 203.832 28.084ZM219.842 21.207V36H215.891V21.207H219.842ZM215.645 17.3516C215.645 16.7773 215.846 16.3034 216.247 15.9297C216.648 15.556 217.186 15.3691 217.86 15.3691C218.525 15.3691 219.059 15.556 219.46 15.9297C219.87 16.3034 220.075 16.7773 220.075 17.3516C220.075 17.9258 219.87 18.3997 219.46 18.7734C219.059 19.1471 218.525 19.334 217.86 19.334C217.186 19.334 216.648 19.1471 216.247 18.7734C215.846 18.3997 215.645 17.9258 215.645 17.3516ZM226.392 24.3652V36H222.454V21.207H226.146L226.392 24.3652ZM225.818 28.084H224.751C224.751 26.9902 224.893 26.0059 225.175 25.1309C225.458 24.2467 225.854 23.4948 226.365 22.875C226.875 22.2461 227.481 21.7676 228.183 21.4395C228.894 21.1022 229.687 20.9336 230.562 20.9336C231.255 20.9336 231.888 21.0339 232.462 21.2344C233.036 21.4349 233.529 21.7539 233.939 22.1914C234.358 22.6289 234.677 23.2077 234.896 23.9277C235.124 24.6478 235.238 25.5273 235.238 26.5664V36H231.273V26.5527C231.273 25.8965 231.182 25.3861 230.999 25.0215C230.817 24.6569 230.548 24.4017 230.193 24.2559C229.846 24.1009 229.418 24.0234 228.908 24.0234C228.379 24.0234 227.919 24.1283 227.527 24.3379C227.144 24.5475 226.825 24.8392 226.57 25.2129C226.324 25.5775 226.137 26.0059 226.009 26.498C225.881 26.9902 225.818 27.5189 225.818 28.084ZM247.037 21.207H250.605V35.5078C250.605 36.8568 250.305 38.0007 249.703 38.9395C249.111 39.8874 248.281 40.6029 247.215 41.0859C246.148 41.5781 244.909 41.8242 243.496 41.8242C242.876 41.8242 242.22 41.7422 241.527 41.5781C240.844 41.4141 240.187 41.1589 239.558 40.8125C238.939 40.4661 238.419 40.0286 238 39.5L239.736 37.1758C240.192 37.7044 240.721 38.1146 241.322 38.4062C241.924 38.707 242.589 38.8574 243.318 38.8574C244.029 38.8574 244.631 38.7253 245.123 38.4609C245.615 38.2057 245.993 37.8275 246.258 37.3262C246.522 36.834 246.654 36.237 246.654 35.5352V24.625L247.037 21.207ZM237.084 28.7812V28.4941C237.084 27.3639 237.221 26.3385 237.494 25.418C237.777 24.4883 238.173 23.6908 238.683 23.0254C239.203 22.36 239.832 21.8451 240.57 21.4805C241.308 21.1159 242.142 20.9336 243.072 20.9336C244.056 20.9336 244.881 21.1159 245.547 21.4805C246.212 21.8451 246.759 22.3646 247.187 23.0391C247.616 23.7044 247.948 24.4928 248.185 25.4043C248.431 26.3066 248.623 27.2956 248.76 28.3711V29C248.623 30.0299 248.418 30.987 248.144 31.8711C247.871 32.7552 247.511 33.5299 247.064 34.1953C246.618 34.8516 246.062 35.362 245.396 35.7266C244.74 36.0911 243.956 36.2734 243.045 36.2734C242.133 36.2734 241.308 36.0866 240.57 35.7129C239.841 35.3392 239.217 34.8151 238.697 34.1406C238.178 33.4661 237.777 32.6732 237.494 31.7617C237.221 30.8503 237.084 29.8568 237.084 28.7812ZM241.021 28.4941V28.7812C241.021 29.3919 241.081 29.9616 241.199 30.4902C241.318 31.0189 241.5 31.4883 241.746 31.8984C242.001 32.2995 242.316 32.6139 242.689 32.8418C243.072 33.0605 243.523 33.1699 244.043 33.1699C244.763 33.1699 245.351 33.0195 245.806 32.7188C246.262 32.4089 246.604 31.985 246.832 31.4473C247.06 30.9095 247.192 30.2897 247.228 29.5879V27.7969C247.21 27.2227 247.133 26.7077 246.996 26.252C246.859 25.7871 246.668 25.3906 246.422 25.0625C246.176 24.7344 245.857 24.4792 245.465 24.2969C245.073 24.1146 244.608 24.0234 244.07 24.0234C243.551 24.0234 243.099 24.1419 242.717 24.3789C242.343 24.6068 242.028 24.9212 241.773 25.3223C241.527 25.7233 241.34 26.1973 241.213 26.7441C241.085 27.2819 241.021 27.8652 241.021 28.4941Z" fill="#0D0D0D"/>
</g>
<defs>
<clipPath id="clip0_982_5460">
<rect width="253" height="48" fill="white"/>
</clipPath>
</defs>
</svg>
