<svg width="233" height="40" viewBox="0 0 233 40" fill="none" xmlns="http://www.w3.org/2000/svg">
<rect width="41.4169" height="39.9888" fill="#F5F5F5"/>
<path fill-rule="evenodd" clip-rule="evenodd" d="M12.4966 24.6361C13.6797 24.6361 14.6388 23.677 14.6388 22.4938C14.6388 21.3107 13.6797 20.3516 12.4966 20.3516C11.3134 20.3516 10.3543 21.3107 10.3543 22.4938C10.3543 23.677 11.3134 24.6361 12.4966 24.6361ZM21.0654 24.6363C22.2485 24.6363 23.2077 23.6772 23.2077 22.494C23.2077 21.3109 22.2485 20.3518 21.0654 20.3518C19.8823 20.3518 18.9232 21.3109 18.9232 22.494C18.9232 23.6772 19.8823 24.6363 21.0654 24.6363ZM31.7766 22.494C31.7766 23.6772 30.8175 24.6363 29.6344 24.6363C28.4512 24.6363 27.4921 23.6772 27.4921 22.494C27.4921 21.3109 28.4512 20.3518 29.6344 20.3518C30.8175 20.3518 31.7766 21.3109 31.7766 22.494ZM5.71289 25.7073H35.7045V29.9918H5.71289V25.7073ZM18.5666 39.9892V29.992H22.8511V39.9892H18.5666ZM9.99719 29.992L9.99719 39.9892H14.2817V29.992H9.99719ZM27.1355 39.9892V29.992H31.42V39.9892H27.1355Z" fill="#191919"/>
<path d="M57.7809 13.0812V29.665H54.3752V13.0812H57.7809ZM62.8836 13.0812V15.7578H49.3522V13.0812H62.8836ZM67.3603 12.1699V29.665H64.08V12.1699H67.3603ZM66.8934 23.0702H65.9935C66.0011 22.2122 66.115 21.4225 66.3352 20.7011C66.5554 19.9721 66.8706 19.3419 67.2806 18.8103C67.6907 18.2712 68.1804 17.8536 68.7499 17.5574C69.327 17.2613 69.9649 17.1132 70.6635 17.1132C71.2709 17.1132 71.8214 17.2005 72.315 17.3752C72.8162 17.5422 73.2452 17.8156 73.6021 18.1953C73.9666 18.5674 74.2475 19.0571 74.4449 19.6646C74.6424 20.2721 74.7411 21.0086 74.7411 21.8743V29.665H71.438V21.8515C71.438 21.3048 71.3582 20.8757 71.1988 20.5644C71.0469 20.2455 70.8229 20.0215 70.5268 19.8924C70.2382 19.7557 69.8813 19.6874 69.4561 19.6874C68.9853 19.6874 68.5829 19.7747 68.2488 19.9493C67.9223 20.124 67.6603 20.367 67.4629 20.6783C67.2654 20.982 67.1212 21.3389 67.03 21.749C66.9389 22.159 66.8934 22.5994 66.8934 23.0702ZM80.2315 17.341V29.665H76.9398V17.341H80.2315ZM76.7348 14.129C76.7348 13.6507 76.9018 13.2558 77.236 12.9445C77.5701 12.6331 78.0181 12.4775 78.58 12.4775C79.1343 12.4775 79.5785 12.6331 79.9126 12.9445C80.2543 13.2558 80.4252 13.6507 80.4252 14.129C80.4252 14.6074 80.2543 15.0023 79.9126 15.3136C79.5785 15.6249 79.1343 15.7806 78.58 15.7806C78.0181 15.7806 77.5701 15.6249 77.236 15.3136C76.9018 15.0023 76.7348 14.6074 76.7348 14.129ZM89.139 26.2594C89.139 26.024 89.0707 25.8114 88.934 25.6216C88.7973 25.4317 88.5429 25.2571 88.1708 25.0976C87.8064 24.9306 87.2786 24.7787 86.5876 24.642C85.965 24.5054 85.3841 24.3345 84.845 24.1295C84.3134 23.9169 83.8502 23.6625 83.4554 23.3664C83.0681 23.0702 82.7644 22.7209 82.5442 22.3185C82.324 21.9084 82.2139 21.4414 82.2139 20.9175C82.2139 20.4011 82.324 19.9152 82.5442 19.4596C82.772 19.004 83.0947 18.6015 83.5123 18.2522C83.9376 17.8953 84.4539 17.6182 85.0614 17.4208C85.6764 17.2157 86.3674 17.1132 87.1344 17.1132C88.205 17.1132 89.1238 17.2841 89.8907 17.6258C90.6653 17.9675 91.2575 18.4383 91.6676 19.0381C92.0852 19.6304 92.294 20.3062 92.294 21.0656H89.0137C89.0137 20.7466 88.9454 20.4619 88.8087 20.2113C88.6796 19.9531 88.4746 19.7519 88.1936 19.6076C87.9203 19.4558 87.5634 19.3798 87.123 19.3798C86.7585 19.3798 86.4434 19.4444 86.1776 19.5735C85.9118 19.695 85.7068 19.862 85.5625 20.0746C85.4258 20.2797 85.3575 20.5075 85.3575 20.758C85.3575 20.9479 85.3955 21.1187 85.4714 21.2706C85.5549 21.4149 85.6878 21.5477 85.8701 21.6692C86.0523 21.7907 86.2877 21.9046 86.5762 22.0109C86.8724 22.1097 87.2369 22.2008 87.6697 22.2843C88.5581 22.4665 89.3516 22.7057 90.0502 23.0019C90.7488 23.2904 91.3031 23.6853 91.7131 24.1864C92.1232 24.68 92.3282 25.3292 92.3282 26.1341C92.3282 26.6809 92.2067 27.182 91.9637 27.6376C91.7207 28.0932 91.3714 28.4919 90.9158 28.8336C90.4602 29.1677 89.9135 29.4296 89.2757 29.6195C88.6454 29.8017 87.9355 29.8928 87.1457 29.8928C85.9991 29.8928 85.0272 29.6878 84.2299 29.2778C83.4402 28.8677 82.8403 28.3476 82.4303 27.7173C82.0278 27.0795 81.8266 26.4265 81.8266 25.7583H84.9361C84.9513 26.2063 85.0652 26.567 85.2778 26.8403C85.498 27.1137 85.7751 27.3111 86.1093 27.4326C86.451 27.5541 86.8192 27.6148 87.2141 27.6148C87.6393 27.6148 87.9924 27.5579 88.2734 27.444C88.5543 27.3225 88.7669 27.163 88.9112 26.9656C89.0631 26.7606 89.139 26.5252 89.139 26.2594ZM106.339 13.0812V29.665H102.933V13.0812H106.339ZM111.442 13.0812V15.7578H97.9102V13.0812H111.442ZM117.319 29.8928C116.363 29.8928 115.504 29.741 114.745 29.4372C113.986 29.1259 113.34 28.6969 112.809 28.1502C112.285 27.6034 111.882 26.9694 111.602 26.248C111.321 25.5191 111.18 24.7445 111.18 23.9245V23.4689C111.18 22.5349 111.313 21.6806 111.579 20.9061C111.844 20.1316 112.224 19.4596 112.718 18.8901C113.219 18.3206 113.826 17.8839 114.54 17.5802C115.254 17.2689 116.059 17.1132 116.955 17.1132C117.828 17.1132 118.603 17.2575 119.278 17.546C119.954 17.8346 120.52 18.2446 120.976 18.7762C121.439 19.3077 121.788 19.9455 122.023 20.6897C122.259 21.4262 122.376 22.2463 122.376 23.1499V24.5167H112.581V22.3299H119.153V22.0793C119.153 21.6237 119.07 21.2174 118.903 20.8605C118.743 20.4961 118.5 20.2075 118.174 19.9949C117.847 19.7823 117.429 19.676 116.921 19.676C116.488 19.676 116.116 19.7709 115.804 19.9607C115.493 20.1506 115.239 20.4163 115.041 20.758C114.851 21.0997 114.707 21.5022 114.608 21.9654C114.517 22.421 114.472 22.9221 114.472 23.4689V23.9245C114.472 24.418 114.54 24.8736 114.677 25.2913C114.821 25.7089 115.022 26.0696 115.28 26.3733C115.546 26.6771 115.865 26.9124 116.237 27.0795C116.617 27.2466 117.046 27.3301 117.524 27.3301C118.117 27.3301 118.667 27.2162 119.176 26.9884C119.692 26.753 120.136 26.3999 120.509 25.9291L122.103 27.6604C121.845 28.0325 121.492 28.3894 121.044 28.7311C120.603 29.0728 120.072 29.3537 119.449 29.5739C118.827 29.7865 118.117 29.8928 117.319 29.8928ZM128.869 27.3301C129.272 27.3301 129.629 27.2541 129.94 27.1023C130.251 26.9428 130.494 26.7226 130.669 26.4417C130.851 26.1531 130.946 25.8152 130.954 25.4279H134.04C134.033 26.2936 133.801 27.0643 133.346 27.7401C132.89 28.4083 132.279 28.9361 131.512 29.3233C130.745 29.703 129.887 29.8928 128.938 29.8928C127.981 29.8928 127.146 29.7334 126.432 29.4145C125.726 29.0955 125.137 28.6551 124.666 28.0932C124.196 27.5237 123.842 26.8631 123.607 26.1113C123.372 25.352 123.254 24.5395 123.254 23.6739V23.3436C123.254 22.4703 123.372 21.6578 123.607 20.9061C123.842 20.1468 124.196 19.4861 124.666 18.9242C125.137 18.3547 125.726 17.9105 126.432 17.5916C127.138 17.2727 127.966 17.1132 128.915 17.1132C129.925 17.1132 130.809 17.3069 131.569 17.6941C132.336 18.0814 132.935 18.6357 133.368 19.3571C133.809 20.0708 134.033 20.9175 134.04 21.897H130.954C130.946 21.487 130.859 21.1149 130.692 20.7808C130.532 20.4467 130.297 20.1809 129.985 19.9835C129.682 19.7785 129.306 19.676 128.858 19.676C128.379 19.676 127.988 19.7785 127.685 19.9835C127.381 20.1809 127.146 20.4543 126.979 20.8036C126.811 21.1453 126.694 21.5364 126.625 21.9768C126.565 22.4096 126.534 22.8652 126.534 23.3436V23.6739C126.534 24.1523 126.565 24.6117 126.625 25.0521C126.686 25.4925 126.8 25.8835 126.967 26.2252C127.142 26.567 127.381 26.8365 127.685 27.0339C127.988 27.2314 128.383 27.3301 128.869 27.3301ZM138.677 12.1699V29.665H135.396V12.1699H138.677ZM138.21 23.0702H137.31C137.317 22.2122 137.431 21.4225 137.651 20.7011C137.872 19.9721 138.187 19.3419 138.597 18.8103C139.007 18.2712 139.497 17.8536 140.066 17.5574C140.643 17.2613 141.281 17.1132 141.98 17.1132C142.587 17.1132 143.138 17.2005 143.631 17.3752C144.132 17.5422 144.561 17.8156 144.918 18.1953C145.283 18.5674 145.564 19.0571 145.761 19.6646C145.959 20.2721 146.057 21.0086 146.057 21.8743V29.665H142.754V21.8515C142.754 21.3048 142.674 20.8757 142.515 20.5644C142.363 20.2455 142.139 20.0215 141.843 19.8924C141.554 19.7557 141.198 19.6874 140.772 19.6874C140.302 19.6874 139.899 19.7747 139.565 19.9493C139.238 20.124 138.976 20.367 138.779 20.6783C138.582 20.982 138.437 21.3389 138.346 21.749C138.255 22.159 138.21 22.5994 138.21 23.0702ZM160.432 13.0812V29.665H157.027V13.0812H160.432ZM165.535 13.0812V15.7578H152.004V13.0812H165.535ZM170.012 12.1699V29.665H166.732V12.1699H170.012ZM169.545 23.0702H168.645C168.653 22.2122 168.767 21.4225 168.987 20.7011C169.207 19.9721 169.522 19.3419 169.932 18.8103C170.342 18.2712 170.832 17.8536 171.401 17.5574C171.979 17.2613 172.616 17.1132 173.315 17.1132C173.922 17.1132 174.473 17.2005 174.967 17.3752C175.468 17.5422 175.897 17.8156 176.254 18.1953C176.618 18.5674 176.899 19.0571 177.096 19.6646C177.294 20.2721 177.393 21.0086 177.393 21.8743V29.665H174.09V21.8515C174.09 21.3048 174.01 20.8757 173.85 20.5644C173.698 20.2455 173.474 20.0215 173.178 19.8924C172.89 19.7557 172.533 19.6874 172.108 19.6874C171.637 19.6874 171.234 19.7747 170.9 19.9493C170.574 20.124 170.312 20.367 170.114 20.6783C169.917 20.982 169.773 21.3389 169.682 21.749C169.59 22.159 169.545 22.5994 169.545 23.0702ZM182.883 17.341V29.665H179.591V17.341H182.883ZM179.386 14.129C179.386 13.6507 179.553 13.2558 179.887 12.9445C180.222 12.6331 180.67 12.4775 181.232 12.4775C181.786 12.4775 182.23 12.6331 182.564 12.9445C182.906 13.2558 183.077 13.6507 183.077 14.129C183.077 14.6074 182.906 15.0023 182.564 15.3136C182.23 15.6249 181.786 15.7806 181.232 15.7806C180.67 15.7806 180.222 15.6249 179.887 15.3136C179.553 15.0023 179.386 14.6074 179.386 14.129ZM188.339 19.9721V29.665H185.059V17.341H188.134L188.339 19.9721ZM187.861 23.0702H186.973C186.973 22.159 187.09 21.3389 187.326 20.61C187.561 19.8734 187.891 19.247 188.317 18.7306C188.742 18.2067 189.247 17.808 189.831 17.5347C190.424 17.2537 191.084 17.1132 191.813 17.1132C192.39 17.1132 192.918 17.1967 193.397 17.3638C193.875 17.5309 194.285 17.7966 194.627 18.1611C194.976 18.5256 195.242 19.0078 195.424 19.6076C195.614 20.2075 195.709 20.9403 195.709 21.8059V29.665H192.406V21.7945C192.406 21.2478 192.33 20.8226 192.178 20.5188C192.026 20.2151 191.802 20.0025 191.506 19.881C191.217 19.7519 190.86 19.6874 190.435 19.6874C189.995 19.6874 189.611 19.7747 189.285 19.9493C188.966 20.124 188.7 20.367 188.487 20.6783C188.282 20.982 188.127 21.3389 188.02 21.749C187.914 22.159 187.861 22.5994 187.861 23.0702ZM205.539 17.341H208.512V29.255C208.512 30.3788 208.261 31.3318 207.76 32.1139C207.266 32.9036 206.575 33.4997 205.687 33.9021C204.798 34.3122 203.766 34.5172 202.589 34.5172C202.072 34.5172 201.526 34.4489 200.949 34.3122C200.379 34.1755 199.832 33.9629 199.308 33.6743C198.792 33.3858 198.359 33.0213 198.01 32.5809L199.456 30.6446C199.836 31.085 200.277 31.4267 200.778 31.6697C201.279 31.9203 201.833 32.0456 202.441 32.0456C203.033 32.0456 203.534 31.9355 203.944 31.7152C204.354 31.5026 204.669 31.1875 204.89 30.7699C205.11 30.3598 205.22 29.8625 205.22 29.2778V20.1885L205.539 17.341ZM197.247 23.6511V23.4119C197.247 22.4703 197.361 21.6161 197.589 20.8492C197.824 20.0746 198.154 19.4102 198.579 18.8559C199.012 18.3016 199.536 17.8726 200.151 17.5688C200.766 17.2651 201.461 17.1132 202.236 17.1132C203.056 17.1132 203.743 17.2651 204.297 17.5688C204.852 17.8726 205.307 18.3054 205.664 18.8673C206.021 19.4216 206.298 20.0784 206.496 20.8378C206.701 21.5895 206.86 22.4134 206.974 23.3094V23.8333C206.86 24.6914 206.689 25.4887 206.461 26.2252C206.234 26.9618 205.934 27.6072 205.562 28.1616C205.189 28.7083 204.726 29.1335 204.172 29.4372C203.625 29.741 202.972 29.8928 202.213 29.8928C201.454 29.8928 200.766 29.7372 200.151 29.4258C199.544 29.1145 199.024 28.6779 198.591 28.116C198.158 27.5541 197.824 26.8935 197.589 26.1341C197.361 25.3748 197.247 24.5471 197.247 23.6511ZM200.527 23.4119V23.6511C200.527 24.1599 200.577 24.6344 200.675 25.0749C200.774 25.5153 200.926 25.9063 201.131 26.248C201.343 26.5821 201.605 26.8441 201.917 27.0339C202.236 27.2162 202.612 27.3073 203.044 27.3073C203.644 27.3073 204.134 27.182 204.514 26.9314C204.893 26.6733 205.178 26.3202 205.368 25.8722C205.558 25.4242 205.668 24.9078 205.698 24.3231V22.831C205.683 22.3526 205.618 21.9236 205.505 21.5439C205.391 21.1567 205.231 20.8264 205.026 20.553C204.821 20.2797 204.555 20.067 204.229 19.9152C203.902 19.7633 203.515 19.6874 203.067 19.6874C202.634 19.6874 202.258 19.7861 201.94 19.9835C201.628 20.1733 201.366 20.4353 201.154 20.7694C200.949 21.1035 200.793 21.4984 200.687 21.954C200.58 22.402 200.527 22.888 200.527 23.4119Z" fill="#F5F5F5"/>
</svg>
