<svg width="22" height="24" viewBox="0 0 22 24" fill="none" xmlns="http://www.w3.org/2000/svg">
<path d="M15.2088 14.25C13.8635 14.25 13.2166 15 11.0088 15C8.80098 15 8.15879 14.25 6.80879 14.25C3.33066 14.25 0.508789 17.0719 0.508789 20.55V21.75C0.508789 22.9922 1.5166 24 2.75879 24H19.2588C20.501 24 21.5088 22.9922 21.5088 21.75V20.55C21.5088 17.0719 18.6869 14.25 15.2088 14.25ZM19.2588 21.75H2.75879V20.55C2.75879 18.3188 4.57754 16.5 6.80879 16.5C7.49316 16.5 8.6041 17.25 11.0088 17.25C13.4322 17.25 14.5197 16.5 15.2088 16.5C17.44 16.5 19.2588 18.3188 19.2588 20.55V21.75ZM11.0088 13.5C14.7354 13.5 17.7588 10.4766 17.7588 6.75C17.7588 3.02344 14.7354 0 11.0088 0C7.28223 0 4.25879 3.02344 4.25879 6.75C4.25879 10.4766 7.28223 13.5 11.0088 13.5ZM11.0088 2.25C13.4885 2.25 15.5088 4.27031 15.5088 6.75C15.5088 9.22969 13.4885 11.25 11.0088 11.25C8.5291 11.25 6.50879 9.22969 6.50879 6.75C6.50879 4.27031 8.5291 2.25 11.0088 2.25Z" fill="#F9F9F9"/>
</svg>
