<svg width="22" height="17" viewBox="0 0 22 17" fill="none" xmlns="http://www.w3.org/2000/svg">
<path d="M21.1623 2.32097C20.3989 2.65866 19.5893 2.88044 18.7603 2.97897C19.634 2.4564 20.288 1.63398 20.6003 0.664971C19.7803 1.15297 18.8813 1.49497 17.9443 1.67997C17.3149 1.00655 16.4807 0.559931 15.5713 0.409551C14.6618 0.259171 13.7282 0.41346 12.9156 0.84842C12.1029 1.28338 11.4567 1.97465 11.0774 2.81476C10.6981 3.65487 10.607 4.59675 10.8183 5.49397C9.1554 5.41062 7.52863 4.97849 6.04358 4.22563C4.55854 3.47277 3.24842 2.41602 2.1983 1.12397C1.82659 1.76242 1.63125 2.48819 1.6323 3.22697C1.6323 4.67697 2.3703 5.95797 3.4923 6.70796C2.82831 6.68706 2.17893 6.50776 1.5983 6.18496V6.23696C1.5985 7.20266 1.93267 8.13856 2.54414 8.88606C3.15562 9.63346 4.00678 10.1465 4.9533 10.338C4.33691 10.505 3.6906 10.5297 3.0633 10.41C3.33016 11.2412 3.8503 11.9682 4.55089 12.4891C5.25147 13.01 6.09742 13.2988 6.9703 13.315C6.10278 13.9963 5.10947 14.5 4.04718 14.7972C2.98488 15.0944 1.87442 15.1793 0.779297 15.047C2.69099 16.2764 4.91639 16.9291 7.1893 16.927C14.8823 16.927 19.0893 10.554 19.0893 5.02697C19.0893 4.84697 19.0843 4.66497 19.0763 4.48697C19.8952 3.89514 20.6019 3.16199 21.1633 2.32197L21.1623 2.32097Z" fill="#F9F9F9"/>
</svg>
