<svg width="25" height="28" viewBox="0 0 25 28" fill="none" xmlns="http://www.w3.org/2000/svg">
<g clip-path="url(#clip0_1024_1192)">
<path d="M1.125 14C1.125 16.2498 1.7921 18.449 3.042 20.3196C4.2919 22.1902 6.06849 23.6482 8.14699 24.5091C10.2255 25.3701 12.5126 25.5953 14.7191 25.1564C16.9257 24.7175 18.9525 23.6342 20.5433 22.0433C22.1342 20.4525 23.2175 18.4257 23.6564 16.2191C24.0953 14.0126 23.8701 11.7255 23.0091 9.647C22.1482 7.5685 20.6902 5.7919 18.8196 4.542C16.949 3.2921 14.7498 2.625 12.5 2.625C9.4849 2.6308 6.595 3.8311 4.463 5.963C2.3311 8.095 1.1308 10.9849 1.125 14ZM12.8391 8.8156C12.9451 8.8633 13.0415 8.93 13.1234 9.0125L16.8312 12.7203C16.9129 12.7997 16.9774 12.8951 17.0206 13.0004C17.0639 13.1058 17.0851 13.2189 17.0828 13.3328C17.0853 13.4483 17.0643 13.5632 17.021 13.6704C16.9778 13.7775 16.9132 13.8748 16.8312 13.9562C16.6672 14.1199 16.445 14.2118 16.2133 14.2118C15.9816 14.2118 15.7593 14.1199 15.5953 13.9562L13.375 11.7359L13.375 18.375C13.375 18.6071 13.2828 18.8296 13.1187 18.9937C12.9546 19.1578 12.7321 19.25 12.5 19.25C12.2679 19.25 12.0454 19.1578 11.8813 18.9937C11.7172 18.8296 11.625 18.6071 11.625 18.375L11.625 11.7359L9.4047 13.9562C9.2382 14.1071 9.0202 14.1881 8.7956 14.1826C8.5711 14.177 8.3573 14.0854 8.1984 13.9265C8.0396 13.7677 7.948 13.5539 7.9424 13.3294C7.9369 13.1048 8.0179 12.8868 8.1688 12.7203L11.8766 9.0125C11.9585 8.93 12.0549 8.8633 12.1609 8.8156C12.3785 8.728 12.6215 8.728 12.8391 8.8156Z" fill="#191919"/>
</g>
<defs>
<clipPath id="clip0_1024_1192">
<rect width="24" height="24" fill="white" transform="translate(24.5 26) rotate(-180)"/>
</clipPath>
</defs>
</svg>
