<svg width="11" height="7" viewBox="0 0 11 7" fill="none" xmlns="http://www.w3.org/2000/svg">
<path fill-rule="evenodd" clip-rule="evenodd" d="M0.292787 1.29299C0.480314 1.10552 0.734622 1.0002 0.999786 1.0002C1.26495 1.0002 1.51926 1.10552 1.70679 1.29299L4.99979 4.58599L8.29279 1.29299C8.38503 1.19748 8.49538 1.1213 8.61738 1.06889C8.73939 1.01648 8.87061 0.988893 9.00339 0.987739C9.13616 0.986585 9.26784 1.01189 9.39074 1.06217C9.51364 1.11245 9.62529 1.1867 9.71918 1.28059C9.81307 1.37449 9.88733 1.48614 9.93761 1.60904C9.98789 1.73193 10.0132 1.86361 10.012 1.99639C10.0109 2.12917 9.9833 2.26039 9.93089 2.38239C9.87848 2.5044 9.8023 2.61474 9.70679 2.70699L5.70679 6.70699C5.51926 6.89446 5.26495 6.99978 4.99979 6.99978C4.73462 6.99978 4.48031 6.89446 4.29279 6.70699L0.292787 2.70699C0.105316 2.51946 0 2.26515 0 1.99999C0 1.73483 0.105316 1.48052 0.292787 1.29299Z" fill="#191919"/>
</svg>
